<svg version="1.1" xmlns="http://www.w3.org/2000/svg" xmlns:xlink="http://www.w3.org/1999/xlink" x="0" y="0" width="64" height="64" viewBox="0, 0, 64, 64">
  <g id="Layer_1">
    <g id="Layer_1">
      <path d="M0,25.6 C0,16.639 0,12.159 1.744,8.736 C3.278,5.726 5.726,3.278 8.736,1.744 C12.159,0 16.639,0 25.6,0 L38.4,0 C47.361,0 51.841,0 55.264,1.744 C58.274,3.278 60.722,5.726 62.256,8.736 C64,12.159 64,16.639 64,25.6 L64,38.4 C64,47.361 64,51.841 62.256,55.264 C60.722,58.274 58.274,60.722 55.264,62.256 C51.841,64 47.361,64 38.4,64 L25.6,64 C16.639,64 12.159,64 8.736,62.256 C5.726,60.722 3.278,58.274 1.744,55.264 C0,51.841 0,47.361 0,38.4 L0,25.6 z" fill="#292E3A"/>
      <path d="M15.538,9.74 C15.532,9.331 15.529,9.146 15.584,9.127 C15.629,9.111 15.715,9.21 15.871,9.391 C16.788,10.456 20.147,14.358 32.231,14.504 C32.353,14.501 32.474,14.5 32.596,14.5 C38.365,14.5 43.504,17.2 46.817,21.405 C45.152,20.784 43.324,20.91 41.707,21.573 C38.991,22.688 36.75,25.363 36.75,28.707 C36.75,29.927 36.905,30.896 37.199,31.719 C37.494,32.547 37.916,33.19 38.401,33.769 C38.742,34.177 39.134,34.574 39.526,34.97 L39.526,34.97 C39.669,35.115 39.813,35.261 39.954,35.406 C40.495,35.966 41.058,36.59 41.621,37.401 C42.647,38.877 43.155,40.116 43.242,41.485 C43.331,42.876 42.991,44.486 42.153,46.717 C41.994,47.14 42.061,47.566 42.267,47.893 C39.47,49.666 36.153,50.692 32.596,50.692 C22.602,50.692 14.5,42.59 14.5,32.596 C14.5,28.565 15.818,24.843 18.045,21.835 C16.456,20.952 15.183,20.733 14.37,20.593 C13.73,20.483 13.375,20.422 13.375,20.125 C13.375,19.185 18.613,18.351 18.613,18.351 C18.613,18.351 15.544,17.147 15.544,16.208 C15.544,15.268 19.056,15.617 19.056,15.617 C19.056,15.617 15.544,14.73 15.544,10.369 C15.544,10.118 15.541,9.91 15.538,9.74 z M47.782,22.75 C47.782,22.751 47.782,22.751 47.782,22.751 C43.705,19.926 37.5,23.451 37.5,28.708 L37.5,28.707 C37.5,23.45 43.705,19.926 47.782,22.75 z M42.855,46.98 C43.523,45.2 43.903,43.752 43.987,42.463 C43.903,43.752 43.524,45.2 42.855,46.98 C42.836,47.031 42.824,47.082 42.819,47.131 C42.824,47.082 42.836,47.031 42.855,46.98 z" fill="#73BED0"/>
      <path d="M30.132,29.88 C30.45,29.993 30.609,30.049 30.734,30.03 C30.842,30.013 30.945,29.959 31.02,29.879 C31.107,29.788 31.137,29.674 31.198,29.448 C31.298,29.08 31.352,28.683 31.352,28.269 C31.352,26.345 30.182,24.785 28.738,24.785 C27.295,24.785 26.125,26.345 26.125,28.269 C26.125,28.65 26.171,29.017 26.256,29.361 C26.312,29.586 26.34,29.699 26.423,29.792 C26.495,29.873 26.595,29.929 26.701,29.949 C26.824,29.973 26.983,29.923 27.302,29.825 C27.722,29.695 28.17,29.625 28.633,29.625 C29.158,29.625 29.663,29.715 30.132,29.88 z" fill="#292E3A"/>
      <path d="M42.237,36.973 C39.856,33.543 37.5,33.331 37.5,28.708 C37.5,22.725 45.536,18.987 49.326,24.295 C50.953,26.574 51.5,30.09 51.5,32.84 C51.5,38.982 48.396,44.402 43.657,47.651 C43.204,47.96 42.663,47.493 42.855,46.98 C44.557,42.446 44.386,40.068 42.237,36.973 z" fill="#CE6469"/>
    </g>
  </g>
</svg>
